<?xml version="1.0" encoding="iso-8859-1"?>
<!-- Generator: Adobe Illustrator 21.1.0, SVG Export Plug-In . SVG Version: 6.00 Build 0)  -->
<svg version="1.1" id="Layer_1" xmlns="http://www.w3.org/2000/svg" xmlns:xlink="http://www.w3.org/1999/xlink" x="0px" y="0px"
	 viewBox="0 0 100.353 100.353" style="enable-background:new 0 0 100.353 100.353;" xml:space="preserve">
<g>
	<path d="M90.495,18.745c-0.002-0.827-0.673-1.497-1.5-1.497c-0.001,0-0.002,0-0.003,0l-78.108,0.164
		c-0.398,0.001-0.779,0.16-1.06,0.441c-0.281,0.282-0.438,0.664-0.437,1.062l0.122,56.241c0.002,0.828,0.673,1.497,1.5,1.497
		c0.001,0,0.002,0,0.003,0l21.532-0.045l-1.146,1.616c-0.357,0.505-0.369,1.177-0.029,1.693c0.34,0.516,0.963,0.772,1.566,0.642
		l6.71-1.434l1.175,6.284c0.117,0.625,0.615,1.108,1.243,1.207c0.078,0.012,0.155,0.018,0.232,0.018
		c0.544,0,1.055-0.297,1.319-0.787l5.011-9.273l3.696-0.007l4.898,9.377c0.261,0.5,0.776,0.806,1.328,0.806
		c0.07,0,0.141-0.005,0.212-0.015c0.629-0.09,1.134-0.565,1.26-1.188l1.266-6.267l6.682,1.527c0.602,0.136,1.228-0.107,1.575-0.619
		c0.347-0.512,0.345-1.184-0.005-1.692l-1.35-1.963l20.932-0.043c0.398-0.001,0.779-0.159,1.06-0.441
		c0.281-0.282,0.438-0.664,0.438-1.062L90.495,18.745z M42.989,80.693l-0.679-3.63c-0.075-0.397-0.306-0.749-0.643-0.973
		c-0.336-0.225-0.748-0.305-1.145-0.219l-4.452,0.951l0.388-0.547c0.224-0.177,0.395-0.414,0.489-0.689l5.211-7.346
		c1.72,1.492,3.771,2.49,5.984,2.915l-1.553,2.875c-0.191,0.196-0.327,0.443-0.389,0.72L42.989,80.693z M60.535,58.548
		c-0.018,2.648-1.068,5.132-2.957,6.993c-1.871,1.843-4.341,2.854-6.964,2.854c-0.025,0-0.05,0-0.076,0
		c-2.651-0.018-5.136-1.067-6.998-2.955c-1.861-1.887-2.875-4.386-2.857-7.034c0.04-5.45,4.488-9.859,9.93-9.859
		c0.022,0,0.046,0,0.068,0C56.154,48.589,60.575,53.074,60.535,58.548C60.535,58.547,60.535,58.547,60.535,58.548z M50.247,73.572
		l0.258-0.478l0.249,0.477L50.247,73.572z M60.451,76.014c-0.394-0.091-0.808-0.018-1.147,0.202
		c-0.34,0.219-0.577,0.566-0.657,0.963l-0.731,3.623l-5.021-9.615c2.22-0.393,4.286-1.359,6.029-2.829l5.961,8.668L60.451,76.014z
		 M66.126,73.539l-5.105-7.424c1.606-2.177,2.496-4.789,2.514-7.546c0.052-7.127-5.704-12.967-12.832-13.021c-0.03,0-0.06,0-0.089,0
		c-7.086,0-12.879,5.741-12.931,12.838c-0.019,2.757,0.834,5.381,2.409,7.581l-5.418,7.637l-22.169,0.047L12.39,20.41l75.108-0.158
		l0.113,53.243L66.126,73.539z"/>
	<path d="M64.459,29.209l-28.657-0.205c-0.004,0-0.007,0-0.011,0c-0.824,0-1.494,0.665-1.5,1.489
		c-0.006,0.829,0.661,1.505,1.489,1.511l28.657,0.205c0.004,0,0.007,0,0.011,0c0.823,0,1.494-0.665,1.5-1.489
		C65.954,29.891,65.287,29.215,64.459,29.209z"/>
	<path d="M64.409,35.978l-28.653-0.204c-0.004,0-0.007,0-0.011,0c-0.824,0-1.494,0.665-1.5,1.489
		c-0.006,0.829,0.661,1.505,1.489,1.511l28.653,0.204c0.004,0,0.008,0,0.011,0c0.823,0,1.494-0.665,1.5-1.489
		C65.904,36.66,65.237,35.984,64.409,35.978z"/>
</g>
</svg>
