<?xml version="1.0" encoding="iso-8859-1"?>
<!-- Generator: Adobe Illustrator 22.0.1, SVG Export Plug-In . SVG Version: 6.00 Build 0)  -->
<svg version="1.1" id="Layer_1" xmlns="http://www.w3.org/2000/svg" xmlns:xlink="http://www.w3.org/1999/xlink" x="0px" y="0px"
	 viewBox="0 0 100.25 100.321" style="enable-background:new 0 0 100.25 100.321;" xml:space="preserve">
<g>
	<path d="M88.5,15.321h-10c-0.176,0-0.343,0.036-0.5,0.092v-2.137c0-3.034-2.467-5.502-5.498-5.502
		c-3.034,0-5.502,2.468-5.502,5.502v2.045H56.5c-0.176,0-0.343,0.036-0.5,0.092v-2.135c0-3.032-2.467-5.499-5.499-5.499
		c-3.033,0-5.501,2.467-5.501,5.499v2.043H34v-2.044c0-3.033-2.467-5.5-5.5-5.5s-5.5,2.467-5.5,5.5v2.044h-9.5
		c-0.829,0-1.5,0.671-1.5,1.5v75c0,0.828,0.671,1.5,1.5,1.5h75c0.828,0,1.5-0.672,1.5-1.5v-75C90,15.992,89.328,15.321,88.5,15.321z
		 M70,13.276c0-1.379,1.122-2.502,2.502-2.502c1.377,0,2.498,1.123,2.498,2.502v7.482c0,1.379-1.121,2.502-2.498,2.502
		c-1.38,0-2.502-1.123-2.502-2.502V13.276z M48,13.278c0-1.378,1.122-2.499,2.501-2.499c1.378,0,2.499,1.121,2.499,2.499v7.477
		c0,1.378-1.121,2.499-2.499,2.499c-1.379,0-2.501-1.121-2.501-2.499V13.278z M26,13.277c0-1.378,1.122-2.5,2.5-2.5
		s2.5,1.122,2.5,2.5v7.479c0,1.378-1.122,2.5-2.5,2.5s-2.5-1.122-2.5-2.5V13.277z M87,90.321H15v-72h8v2.435
		c0,3.033,2.467,5.5,5.5,5.5s5.5-2.467,5.5-5.5v-2.435h11v2.434c0,3.032,2.468,5.499,5.501,5.499c3.032,0,5.499-2.467,5.499-5.499
		v-2.526c0.157,0.056,0.324,0.092,0.5,0.092H67v2.437c0,3.034,2.468,5.502,5.502,5.502c3.032,0,5.498-2.469,5.498-5.502v-2.529
		c0.157,0.056,0.324,0.092,0.5,0.092H87V90.321z"/>
	<path d="M70.398,51.906l-12.462-1.812l-5.574-11.292c-0.252-0.512-0.773-0.836-1.345-0.836c-0.571,0-1.092,0.324-1.345,0.836
		L44.1,50.094l-12.462,1.812c-0.565,0.082-1.034,0.478-1.211,1.021c-0.176,0.543-0.029,1.14,0.38,1.538l9.017,8.789l-2.129,12.412
		c-0.096,0.563,0.135,1.132,0.597,1.468c0.462,0.335,1.074,0.38,1.58,0.114l11.146-5.861l11.147,5.861
		c0.22,0.115,0.459,0.172,0.698,0.172c0.311,0,0.62-0.097,0.882-0.286c0.462-0.336,0.693-0.904,0.597-1.468l-2.13-12.412
		l9.018-8.789c0.409-0.398,0.556-0.995,0.38-1.538C71.433,52.383,70.964,51.988,70.398,51.906z M59.554,61.656
		c-0.354,0.345-0.515,0.841-0.432,1.328l1.749,10.193l-9.155-4.813c-0.219-0.114-0.458-0.172-0.698-0.172
		c-0.24,0-0.479,0.058-0.698,0.172l-9.153,4.813l1.749-10.193c0.083-0.487-0.078-0.983-0.432-1.328l-7.406-7.219l10.235-1.487
		c0.488-0.071,0.911-0.378,1.129-0.82l4.576-9.274l4.578,9.274c0.218,0.442,0.641,0.749,1.129,0.82l10.234,1.487L59.554,61.656z"/>
</g>
</svg>
