<?xml version="1.0" encoding="iso-8859-1"?>
<!-- Generator: Adobe Illustrator 21.0.0, SVG Export Plug-In . SVG Version: 6.00 Build 0)  -->
<svg version="1.1" id="Layer_1" xmlns="http://www.w3.org/2000/svg" xmlns:xlink="http://www.w3.org/1999/xlink" x="0px" y="0px"
	 viewBox="0 0 100.353 100.353" style="enable-background:new 0 0 100.353 100.353;" xml:space="preserve">
<g>
	<path style="fill:#231F20;" d="M49.465,71.651c0-0.886-0.719-1.604-1.604-1.604H14.094c0.834-14.664,13.025-26.338,27.891-26.338
		c5.385,0,10.611,1.535,15.112,4.439c0.748,0.48,1.738,0.266,2.219-0.479c0.479-0.745,0.266-1.738-0.479-2.218
		C53.816,42.212,47.988,40.5,41.984,40.5c-17.174,0-31.146,13.975-31.146,31.151c0,0.886,0.719,1.604,1.604,1.604h35.417
		C48.746,73.256,49.465,72.537,49.465,71.651z"/>
	<path style="fill:#231F20;" d="M41.465,37.931c9.96,0,18.063-8.104,18.063-18.066c0-9.955-8.104-18.054-18.063-18.054
		c-9.953,0-18.051,8.099-18.051,18.054C23.414,29.827,31.512,37.931,41.465,37.931z M41.465,5.02c8.19,0,14.854,6.66,14.854,14.845
		c0,8.192-6.664,14.857-14.854,14.857c-8.184,0-14.842-6.665-14.842-14.857C26.623,11.679,33.282,5.02,41.465,5.02z"/>
	<path style="fill:#231F20;" d="M90.958,89.211L80.619,74.174c1.964-2.612,3.053-5.76,3.075-9.087
		c0.062-8.475-6.781-15.421-15.257-15.483c-8.484-0.059-15.422,6.793-15.483,15.267c-0.022,3.409,1.087,6.559,2.956,9.124
		L45.345,88.887c-0.383,0.54-0.396,1.258-0.031,1.811c0.363,0.552,1.031,0.825,1.675,0.687l8.287-1.771l1.454,7.777
		c0.125,0.668,0.657,1.185,1.329,1.29c0.083,0.013,0.166,0.02,0.249,0.02c0.582,0,1.127-0.318,1.41-0.842l8.486-15.702l8.263,15.821
		c0.279,0.535,0.83,0.862,1.421,0.862c0.075,0,0.15-0.005,0.227-0.016c0.673-0.096,1.213-0.604,1.347-1.271l1.567-7.754l8.249,1.887
		c0.644,0.147,1.313-0.115,1.685-0.663C91.334,90.475,91.332,89.756,90.958,89.211z M68.335,52.813c0.026,0,0.054,0,0.08,0
		c6.705,0.049,12.119,5.545,12.07,12.251v0.001c-0.021,3.245-1.308,6.288-3.622,8.568c-2.293,2.258-5.319,3.499-8.532,3.499
		c-0.03,0-0.061,0-0.092,0c-6.702-0.046-12.119-5.538-12.076-12.239C56.212,58.215,61.665,52.813,68.335,52.813z M59.052,92.343
		l-0.924-4.939c-0.079-0.425-0.327-0.8-0.688-1.041s-0.805-0.324-1.225-0.233l-5.871,1.254l7.771-10.954
		c2.088,1.863,4.683,3.16,7.555,3.663L59.052,92.343z M80.14,86.302c-0.422-0.097-0.864-0.019-1.228,0.216
		c-0.363,0.235-0.617,0.606-0.702,1.03l-0.996,4.927l-6.446-12.342c2.815-0.447,5.432-1.665,7.61-3.554l7.605,11.059L80.14,86.302z"
		/>
</g>
</svg>
